<svg width="52" height="52" viewBox="0 0 52 52" fill="none" xmlns="http://www.w3.org/2000/svg">
<circle cx="26" cy="26" r="25.5" stroke="#0D0D0D"/>
<path d="M27.1629 14.6958C28.4346 14.6992 29.0801 14.706 29.6374 14.7218L29.8567 14.7297C30.1099 14.7388 30.3597 14.7501 30.6616 14.7636C31.8644 14.8201 32.6851 15.0101 33.4051 15.2893C34.1512 15.5764 34.7797 15.9653 35.4083 16.5927C35.9833 17.1576 36.4281 17.8412 36.7117 18.5958C36.9909 19.3159 37.1808 20.1366 37.2373 21.3405C37.2509 21.6412 37.2622 21.891 37.2712 22.1454L37.278 22.3647C37.295 22.9208 37.3017 23.5663 37.304 24.8381L37.3051 25.6814V27.1622C37.3079 27.9868 37.2992 28.8113 37.2791 29.6356L37.2724 29.8549C37.2633 30.1093 37.252 30.3591 37.2384 30.6598C37.1819 31.8637 36.9897 32.6833 36.7117 33.4045C36.4281 34.1591 35.9833 34.8427 35.4083 35.4076C34.8434 35.9827 34.1597 36.4275 33.4051 36.711C32.6851 36.9902 31.8644 37.1801 30.6616 37.2367L29.8567 37.2706L29.6374 37.2774C29.0801 37.2932 28.4346 37.3011 27.1629 37.3034L26.3196 37.3045H24.8398C24.0149 37.3074 23.19 37.2987 22.3653 37.2785L22.146 37.2717C21.8777 37.2616 21.6094 37.2499 21.3411 37.2367C20.1384 37.1801 19.3177 36.9902 18.5964 36.711C17.8423 36.4273 17.159 35.9825 16.5944 35.4076C16.019 34.8428 15.5738 34.1592 15.2899 33.4045C15.0107 32.6844 14.8208 31.8637 14.7643 30.6598L14.7304 29.8549L14.7247 29.6356C14.7039 28.8113 14.6944 27.9868 14.6964 27.1622V24.8381C14.6933 24.0135 14.7016 23.189 14.7213 22.3647L14.7292 22.1454C14.7383 21.891 14.7496 21.6412 14.7631 21.3405C14.8197 20.1366 15.0096 19.317 15.2888 18.5958C15.5733 17.8409 16.0193 17.1573 16.5956 16.5927C17.1598 16.0179 17.8427 15.5731 18.5964 15.2893C19.3177 15.0101 20.1372 14.8201 21.3411 14.7636C21.6418 14.7501 21.8928 14.7388 22.146 14.7297L22.3653 14.7229C23.1896 14.7028 24.0142 14.6942 24.8387 14.6969L27.1629 14.6958ZM26.0008 20.348C24.5017 20.348 23.0641 20.9435 22.0041 22.0035C20.9441 23.0634 20.3486 24.5011 20.3486 26.0001C20.3486 27.4992 20.9441 28.9369 22.0041 29.9968C23.0641 31.0568 24.5017 31.6523 26.0008 31.6523C27.4998 31.6523 28.9375 31.0568 29.9975 29.9968C31.0575 28.9369 31.653 27.4992 31.653 26.0001C31.653 24.5011 31.0575 23.0634 29.9975 22.0035C28.9375 20.9435 27.4998 20.348 26.0008 20.348ZM26.0008 22.6088C26.4461 22.6088 26.8871 22.6964 27.2986 22.8668C27.7101 23.0371 28.084 23.2869 28.399 23.6017C28.7139 23.9166 28.9638 24.2904 29.1343 24.7018C29.3048 25.1133 29.3926 25.5542 29.3927 25.9996C29.3927 26.4449 29.3051 26.8859 29.1347 27.2974C28.9644 27.7089 28.7146 28.0828 28.3998 28.3978C28.0849 28.7127 27.7111 28.9626 27.2997 29.1331C26.8883 29.3036 26.4473 29.3914 26.0019 29.3915C25.1025 29.3915 24.2399 29.0342 23.6039 28.3982C22.9679 27.7622 22.6106 26.8996 22.6106 26.0001C22.6106 25.1007 22.9679 24.2381 23.6039 23.6021C24.2399 22.9661 25.1025 22.6088 26.0019 22.6088M31.9367 18.6523C31.5619 18.6523 31.2025 18.8012 30.9375 19.0662C30.6725 19.3312 30.5237 19.6906 30.5237 20.0654C30.5237 20.4401 30.6725 20.7995 30.9375 21.0645C31.2025 21.3295 31.5619 21.4784 31.9367 21.4784C32.3115 21.4784 32.6709 21.3295 32.9359 21.0645C33.2009 20.7995 33.3497 20.4401 33.3497 20.0654C33.3497 19.6906 33.2009 19.3312 32.9359 19.0662C32.6709 18.8012 32.3115 18.6523 31.9367 18.6523Z" fill="#0D0D0D"/>
</svg>
