<svg width="408" height="149" viewBox="0 0 408 149" fill="none" xmlns="http://www.w3.org/2000/svg">
<rect width="408" height="149" fill="#FFFDF9"/>
<path d="M16.608 97.352L20.72 89.992H22.032L17.856 97.352H16.608ZM16.608 98.088V97.352L17.104 97.032H24.944V98.088H16.608ZM22.16 101V93.656H23.312V101H22.16ZM27.1325 101.16C26.8658 101.16 26.6472 101.069 26.4765 100.888C26.3058 100.707 26.2205 100.488 26.2205 100.232C26.2205 99.976 26.3058 99.7627 26.4765 99.592C26.6472 99.4107 26.8658 99.32 27.1325 99.32C27.3885 99.32 27.6018 99.4107 27.7725 99.592C27.9432 99.7627 28.0285 99.976 28.0285 100.232C28.0285 100.488 27.9432 100.707 27.7725 100.888C27.6018 101.069 27.3885 101.16 27.1325 101.16ZM33.8535 101.16C33.1388 101.16 32.5042 101.021 31.9495 100.744C31.4055 100.467 30.9788 100.088 30.6695 99.608C30.3602 99.1173 30.2055 98.5627 30.2055 97.944C30.2055 97.4533 30.3015 97.0053 30.4935 96.6C30.6962 96.184 30.9788 95.832 31.3415 95.544C31.7042 95.2453 32.1255 95.0427 32.6055 94.936L32.7335 95.272C32.3068 95.1547 31.9442 94.968 31.6455 94.712C31.3468 94.456 31.1175 94.152 30.9575 93.8C30.7975 93.4373 30.7175 93.0587 30.7175 92.664C30.7175 92.0987 30.8508 91.608 31.1175 91.192C31.3948 90.7653 31.7682 90.4293 32.2375 90.184C32.7175 89.9387 33.2562 89.816 33.8535 89.816C34.4615 89.816 35.0002 89.9387 35.4695 90.184C35.9495 90.4293 36.3228 90.7653 36.5895 91.192C36.8562 91.608 36.9895 92.0987 36.9895 92.664C36.9895 93.0587 36.9095 93.4373 36.7495 93.8C36.6002 94.152 36.3762 94.456 36.0775 94.712C35.7788 94.968 35.4108 95.1547 34.9735 95.272L35.1015 94.936C35.5922 95.0427 36.0135 95.2453 36.3655 95.544C36.7282 95.832 37.0055 96.184 37.1975 96.6C37.4002 97.0053 37.5015 97.4533 37.5015 97.944C37.5015 98.5627 37.3468 99.1173 37.0375 99.608C36.7388 100.088 36.3122 100.467 35.7575 100.744C35.2135 101.021 34.5788 101.16 33.8535 101.16ZM33.8535 100.104C34.3442 100.104 34.7762 100.008 35.1495 99.816C35.5335 99.624 35.8322 99.3573 36.0455 99.016C36.2588 98.664 36.3655 98.2693 36.3655 97.832C36.3655 97.384 36.2588 96.9947 36.0455 96.664C35.8322 96.3227 35.5335 96.056 35.1495 95.864C34.7762 95.6613 34.3442 95.56 33.8535 95.56C33.3735 95.56 32.9415 95.6613 32.5575 95.864C32.1842 96.056 31.8855 96.3227 31.6615 96.664C31.4482 96.9947 31.3415 97.384 31.3415 97.832C31.3415 98.2693 31.4482 98.664 31.6615 99.016C31.8855 99.3573 32.1842 99.624 32.5575 99.816C32.9308 100.008 33.3628 100.104 33.8535 100.104ZM33.8535 94.648C34.4508 94.648 34.9362 94.472 35.3095 94.12C35.6935 93.7573 35.8855 93.2933 35.8855 92.728C35.8855 92.1627 35.6935 91.704 35.3095 91.352C34.9362 91 34.4508 90.824 33.8535 90.824C33.2668 90.824 32.7815 91 32.3975 91.352C32.0135 91.704 31.8215 92.1627 31.8215 92.728C31.8215 93.2933 32.0135 93.7573 32.3975 94.12C32.7815 94.472 33.2668 94.648 33.8535 94.648Z" fill="#4E4E4E"/>
<path d="M143.52 101V91.508L143.842 91.844H141.126V91.2H144.234V101H143.52ZM149.576 101.07C148.857 101.07 148.185 100.949 147.56 100.706C146.944 100.463 146.463 100.146 146.118 99.754L146.482 99.208C146.78 99.5533 147.2 99.8427 147.742 100.076C148.292 100.3 148.904 100.412 149.576 100.412C150.453 100.412 151.12 100.216 151.578 99.824C152.044 99.432 152.278 98.9047 152.278 98.242C152.278 97.5887 152.044 97.066 151.578 96.674C151.12 96.2727 150.402 96.072 149.422 96.072H148.806V95.554L151.928 91.564L152.026 91.844H146.482V91.2H152.628V91.704L149.52 95.694L149.212 95.47H149.52C150.686 95.47 151.559 95.7267 152.138 96.24C152.716 96.7533 153.006 97.4207 153.006 98.242C153.006 98.7833 152.875 99.2687 152.614 99.698C152.362 100.127 151.979 100.463 151.466 100.706C150.962 100.949 150.332 101.07 149.576 101.07ZM158.348 101.07C157.602 101.07 156.939 100.869 156.36 100.468C155.782 100.067 155.329 99.4973 155.002 98.76C154.676 98.0133 154.512 97.1267 154.512 96.1C154.512 95.0733 154.676 94.1913 155.002 93.454C155.329 92.7073 155.782 92.1333 156.36 91.732C156.939 91.3307 157.602 91.13 158.348 91.13C159.104 91.13 159.767 91.3307 160.336 91.732C160.915 92.1333 161.368 92.7073 161.694 93.454C162.021 94.1913 162.184 95.0733 162.184 96.1C162.184 97.1267 162.021 98.0133 161.694 98.76C161.368 99.4973 160.915 100.067 160.336 100.468C159.767 100.869 159.104 101.07 158.348 101.07ZM158.348 100.412C158.974 100.412 159.52 100.244 159.986 99.908C160.453 99.5627 160.817 99.068 161.078 98.424C161.34 97.78 161.47 97.0053 161.47 96.1C161.47 95.1853 161.34 94.4107 161.078 93.776C160.817 93.132 160.453 92.642 159.986 92.306C159.52 91.9607 158.974 91.788 158.348 91.788C157.732 91.788 157.186 91.9607 156.71 92.306C156.244 92.642 155.88 93.132 155.618 93.776C155.357 94.4107 155.226 95.1853 155.226 96.1C155.226 97.0053 155.357 97.78 155.618 98.424C155.88 99.068 156.244 99.5627 156.71 99.908C157.186 100.244 157.732 100.412 158.348 100.412ZM168.261 101V91.2H171.775C172.596 91.2 173.301 91.3307 173.889 91.592C174.477 91.8533 174.929 92.2313 175.247 92.726C175.564 93.2113 175.723 93.804 175.723 94.504C175.723 95.1853 175.564 95.7733 175.247 96.268C174.929 96.7533 174.477 97.1313 173.889 97.402C173.301 97.6633 172.596 97.794 171.775 97.794H168.653L168.975 97.458V101H168.261ZM175.065 101L172.517 97.444H173.329L175.877 101H175.065ZM168.975 97.5L168.653 97.164H171.775C172.829 97.164 173.627 96.9307 174.169 96.464C174.719 95.9973 174.995 95.344 174.995 94.504C174.995 93.6547 174.719 93.0013 174.169 92.544C173.627 92.0773 172.829 91.844 171.775 91.844H168.653L168.975 91.494V97.5ZM181.081 101.056C180.344 101.056 179.69 100.897 179.121 100.58C178.561 100.263 178.118 99.824 177.791 99.264C177.474 98.704 177.315 98.0647 177.315 97.346C177.315 96.618 177.464 95.9787 177.763 95.428C178.071 94.868 178.491 94.4293 179.023 94.112C179.555 93.7947 180.152 93.636 180.815 93.636C181.478 93.636 182.07 93.79 182.593 94.098C183.125 94.406 183.54 94.84 183.839 95.4C184.147 95.9507 184.301 96.59 184.301 97.318C184.301 97.346 184.296 97.3787 184.287 97.416C184.287 97.444 184.287 97.4767 184.287 97.514H177.833V96.968H183.909L183.629 97.234C183.638 96.6647 183.517 96.156 183.265 95.708C183.022 95.2507 182.691 94.896 182.271 94.644C181.851 94.3827 181.366 94.252 180.815 94.252C180.274 94.252 179.788 94.3827 179.359 94.644C178.939 94.896 178.608 95.2507 178.365 95.708C178.122 96.156 178.001 96.6693 178.001 97.248V97.374C178.001 97.9713 178.132 98.5033 178.393 98.97C178.664 99.4273 179.032 99.7867 179.499 100.048C179.966 100.3 180.498 100.426 181.095 100.426C181.562 100.426 181.996 100.342 182.397 100.174C182.808 100.006 183.153 99.7493 183.433 99.404L183.839 99.866C183.522 100.258 183.12 100.557 182.635 100.762C182.159 100.958 181.641 101.056 181.081 101.056ZM188.178 101L184.888 93.692H185.63L188.71 100.608H188.374L191.482 93.692H192.196L188.892 101H188.178ZM193.726 101V93.692H194.426V101H193.726ZM194.076 91.914C193.918 91.914 193.782 91.858 193.67 91.746C193.558 91.634 193.502 91.5033 193.502 91.354C193.502 91.1953 193.558 91.06 193.67 90.948C193.782 90.836 193.918 90.78 194.076 90.78C194.244 90.78 194.38 90.836 194.482 90.948C194.594 91.0507 194.65 91.1813 194.65 91.34C194.65 91.4987 194.594 91.634 194.482 91.746C194.38 91.858 194.244 91.914 194.076 91.914ZM200.345 101.056C199.607 101.056 198.954 100.897 198.385 100.58C197.825 100.263 197.381 99.824 197.055 99.264C196.737 98.704 196.579 98.0647 196.579 97.346C196.579 96.618 196.728 95.9787 197.027 95.428C197.335 94.868 197.755 94.4293 198.287 94.112C198.819 93.7947 199.416 93.636 200.079 93.636C200.741 93.636 201.334 93.79 201.857 94.098C202.389 94.406 202.804 94.84 203.103 95.4C203.411 95.9507 203.565 96.59 203.565 97.318C203.565 97.346 203.56 97.3787 203.551 97.416C203.551 97.444 203.551 97.4767 203.551 97.514H197.097V96.968H203.173L202.893 97.234C202.902 96.6647 202.781 96.156 202.529 95.708C202.286 95.2507 201.955 94.896 201.535 94.644C201.115 94.3827 200.629 94.252 200.079 94.252C199.537 94.252 199.052 94.3827 198.623 94.644C198.203 94.896 197.871 95.2507 197.629 95.708C197.386 96.156 197.265 96.6693 197.265 97.248V97.374C197.265 97.9713 197.395 98.5033 197.657 98.97C197.927 99.4273 198.296 99.7867 198.763 100.048C199.229 100.3 199.761 100.426 200.359 100.426C200.825 100.426 201.259 100.342 201.661 100.174C202.071 100.006 202.417 99.7493 202.697 99.404L203.103 99.866C202.785 100.258 202.384 100.557 201.899 100.762C201.423 100.958 200.905 101.056 200.345 101.056ZM207.021 101L204.249 93.692H204.921L207.497 100.608H207.203L209.849 93.692H210.451L213.083 100.608H212.775L215.393 93.692H216.037L213.265 101H212.607L210.031 94.364H210.255L207.665 101H207.021ZM219.432 101.056C218.825 101.056 218.256 100.967 217.724 100.79C217.201 100.613 216.795 100.389 216.506 100.118L216.828 99.558C217.108 99.8007 217.481 100.011 217.948 100.188C218.414 100.356 218.918 100.44 219.46 100.44C220.225 100.44 220.776 100.314 221.112 100.062C221.448 99.81 221.616 99.4787 221.616 99.068C221.616 98.7693 221.527 98.536 221.35 98.368C221.182 98.1907 220.953 98.0553 220.664 97.962C220.374 97.8687 220.057 97.794 219.712 97.738C219.366 97.6727 219.021 97.6027 218.676 97.528C218.33 97.4533 218.013 97.346 217.724 97.206C217.434 97.066 217.201 96.8747 217.024 96.632C216.856 96.38 216.772 96.0487 216.772 95.638C216.772 95.2647 216.874 94.9287 217.08 94.63C217.285 94.3313 217.593 94.0933 218.004 93.916C218.414 93.7293 218.928 93.636 219.544 93.636C220.001 93.636 220.458 93.7013 220.916 93.832C221.382 93.9627 221.76 94.1353 222.05 94.35L221.728 94.91C221.42 94.6767 221.074 94.5087 220.692 94.406C220.309 94.3033 219.922 94.252 219.53 94.252C218.82 94.252 218.298 94.3827 217.962 94.644C217.635 94.9053 217.472 95.232 217.472 95.624C217.472 95.932 217.556 96.1793 217.724 96.366C217.901 96.5433 218.134 96.6833 218.424 96.786C218.713 96.8793 219.03 96.9587 219.376 97.024C219.721 97.08 220.066 97.1453 220.412 97.22C220.757 97.2947 221.074 97.402 221.364 97.542C221.653 97.6727 221.882 97.8593 222.05 98.102C222.227 98.3353 222.316 98.6527 222.316 99.054C222.316 99.4553 222.204 99.8053 221.98 100.104C221.765 100.403 221.443 100.636 221.014 100.804C220.584 100.972 220.057 101.056 219.432 101.056Z" fill="#0D0D0D"/>
<path d="M21.088 125L16.096 113.8H16.992L21.76 124.504H21.264L26.048 113.8H26.896L21.904 125H21.088ZM28.3366 125V116.648H29.1366V125H28.3366ZM28.7366 114.616C28.5553 114.616 28.4006 114.552 28.2726 114.424C28.1446 114.296 28.0806 114.147 28.0806 113.976C28.0806 113.795 28.1446 113.64 28.2726 113.512C28.4006 113.384 28.5553 113.32 28.7366 113.32C28.9286 113.32 29.0833 113.384 29.2006 113.512C29.3286 113.629 29.3926 113.779 29.3926 113.96C29.3926 114.141 29.3286 114.296 29.2006 114.424C29.0833 114.552 28.9286 114.616 28.7366 114.616ZM35.9005 125.064C35.0578 125.064 34.3112 124.883 33.6605 124.52C33.0205 124.157 32.5138 123.656 32.1405 123.016C31.7778 122.376 31.5965 121.645 31.5965 120.824C31.5965 119.992 31.7672 119.261 32.1085 118.632C32.4605 117.992 32.9405 117.491 33.5485 117.128C34.1565 116.765 34.8392 116.584 35.5965 116.584C36.3538 116.584 37.0312 116.76 37.6285 117.112C38.2365 117.464 38.7112 117.96 39.0525 118.6C39.4045 119.229 39.5805 119.96 39.5805 120.792C39.5805 120.824 39.5752 120.861 39.5645 120.904C39.5645 120.936 39.5645 120.973 39.5645 121.016H32.1885V120.392H39.1325L38.8125 120.696C38.8232 120.045 38.6845 119.464 38.3965 118.952C38.1192 118.429 37.7405 118.024 37.2605 117.736C36.7805 117.437 36.2258 117.288 35.5965 117.288C34.9778 117.288 34.4232 117.437 33.9325 117.736C33.4525 118.024 33.0738 118.429 32.7965 118.952C32.5192 119.464 32.3805 120.051 32.3805 120.712V120.856C32.3805 121.539 32.5298 122.147 32.8285 122.68C33.1378 123.203 33.5592 123.613 34.0925 123.912C34.6258 124.2 35.2338 124.344 35.9165 124.344C36.4498 124.344 36.9458 124.248 37.4045 124.056C37.8738 123.864 38.2685 123.571 38.5885 123.176L39.0525 123.704C38.6898 124.152 38.2312 124.493 37.6765 124.728C37.1325 124.952 36.5405 125.064 35.9005 125.064ZM43.5311 125L40.3631 116.648H41.1311L44.0751 124.552H43.7391L46.7631 116.648H47.4511L50.4591 124.552H50.1071L53.0991 116.648H53.8351L50.6671 125H49.9151L46.9711 117.416H47.2271L44.2671 125H43.5311ZM59.8054 125V113.128H60.6054V125H59.8054ZM69.2413 125V123.096L69.2093 122.808V119.672C69.2093 118.893 68.9959 118.301 68.5693 117.896C68.1533 117.491 67.5399 117.288 66.7293 117.288C66.1533 117.288 65.6146 117.389 65.1133 117.592C64.6226 117.784 64.2013 118.035 63.8493 118.344L63.4493 117.768C63.8653 117.395 64.3666 117.107 64.9533 116.904C65.5399 116.691 66.1533 116.584 66.7933 116.584C67.8279 116.584 68.6226 116.845 69.1773 117.368C69.7319 117.891 70.0093 118.669 70.0093 119.704V125H69.2413ZM66.2333 125.064C65.6146 125.064 65.0759 124.968 64.6173 124.776C64.1693 124.573 63.8226 124.291 63.5773 123.928C63.3426 123.565 63.2253 123.149 63.2253 122.68C63.2253 122.253 63.3213 121.869 63.5133 121.528C63.7159 121.176 64.0466 120.893 64.5053 120.68C64.9639 120.456 65.5773 120.344 66.3453 120.344H69.4173V120.968H66.3613C65.4973 120.968 64.8893 121.128 64.5373 121.448C64.1959 121.768 64.0253 122.168 64.0253 122.648C64.0253 123.181 64.2279 123.608 64.6332 123.928C65.0386 124.248 65.6093 124.408 66.3453 124.408C67.0493 124.408 67.6413 124.248 68.1213 123.928C68.6119 123.608 68.9746 123.144 69.2093 122.536L69.4333 123.08C69.2093 123.688 68.8253 124.173 68.2813 124.536C67.7479 124.888 67.0653 125.064 66.2333 125.064ZM73.3054 125V116.648H74.0734V118.936L73.9934 118.68C74.228 118.008 74.6227 117.491 75.1774 117.128C75.732 116.765 76.4254 116.584 77.2574 116.584V117.368C77.2254 117.368 77.1934 117.368 77.1614 117.368C77.1294 117.357 77.0974 117.352 77.0654 117.352C76.1374 117.352 75.412 117.645 74.8894 118.232C74.3667 118.808 74.1054 119.613 74.1054 120.648V125H73.3054ZM82.8555 128.168C82.0982 128.168 81.3782 128.051 80.6955 127.816C80.0128 127.581 79.4582 127.256 79.0315 126.84L79.4635 126.232C79.8795 126.616 80.3755 126.915 80.9515 127.128C81.5382 127.341 82.1675 127.448 82.8395 127.448C83.9595 127.448 84.7808 127.187 85.3035 126.664C85.8368 126.141 86.1035 125.32 86.1035 124.2V121.88L86.2635 120.632L86.1355 119.384V116.648H86.9035V124.104C86.9035 125.501 86.5622 126.525 85.8795 127.176C85.2075 127.837 84.1995 128.168 82.8555 128.168ZM82.6315 124.696C81.8422 124.696 81.1328 124.525 80.5035 124.184C79.8848 123.832 79.3888 123.352 79.0155 122.744C78.6528 122.125 78.4715 121.421 78.4715 120.632C78.4715 119.832 78.6528 119.128 79.0155 118.52C79.3888 117.912 79.8848 117.437 80.5035 117.096C81.1328 116.755 81.8422 116.584 82.6315 116.584C83.3888 116.584 84.0662 116.749 84.6635 117.08C85.2715 117.4 85.7515 117.864 86.1035 118.472C86.4555 119.069 86.6315 119.789 86.6315 120.632C86.6315 121.464 86.4555 122.184 86.1035 122.792C85.7515 123.4 85.2715 123.869 84.6635 124.2C84.0662 124.531 83.3888 124.696 82.6315 124.696ZM82.6955 123.976C83.3675 123.976 83.9595 123.837 84.4715 123.56C84.9835 123.272 85.3835 122.877 85.6715 122.376C85.9702 121.864 86.1195 121.283 86.1195 120.632C86.1195 119.971 85.9702 119.389 85.6715 118.888C85.3835 118.387 84.9835 117.997 84.4715 117.72C83.9595 117.443 83.3675 117.304 82.6955 117.304C82.0448 117.304 81.4582 117.443 80.9355 117.72C80.4235 117.997 80.0182 118.387 79.7195 118.888C79.4315 119.389 79.2875 119.971 79.2875 120.632C79.2875 121.283 79.4315 121.864 79.7195 122.376C80.0182 122.877 80.4235 123.272 80.9355 123.56C81.4582 123.837 82.0448 123.976 82.6955 123.976ZM93.6818 125.064C92.8391 125.064 92.0924 124.883 91.4418 124.52C90.8018 124.157 90.2951 123.656 89.9218 123.016C89.5591 122.376 89.3778 121.645 89.3778 120.824C89.3778 119.992 89.5484 119.261 89.8898 118.632C90.2418 117.992 90.7218 117.491 91.3298 117.128C91.9378 116.765 92.6204 116.584 93.3778 116.584C94.1351 116.584 94.8124 116.76 95.4098 117.112C96.0178 117.464 96.4924 117.96 96.8338 118.6C97.1858 119.229 97.3618 119.96 97.3618 120.792C97.3618 120.824 97.3564 120.861 97.3458 120.904C97.3458 120.936 97.3458 120.973 97.3458 121.016H89.9698V120.392H96.9138L96.5938 120.696C96.6044 120.045 96.4658 119.464 96.1778 118.952C95.9004 118.429 95.5218 118.024 95.0418 117.736C94.5618 117.437 94.0071 117.288 93.3778 117.288C92.7591 117.288 92.2044 117.437 91.7138 117.736C91.2338 118.024 90.8551 118.429 90.5778 118.952C90.3004 119.464 90.1618 120.051 90.1618 120.712V120.856C90.1618 121.539 90.3111 122.147 90.6098 122.68C90.9191 123.203 91.3404 123.613 91.8738 123.912C92.4071 124.2 93.0151 124.344 93.6978 124.344C94.2311 124.344 94.7271 124.248 95.1858 124.056C95.6551 123.864 96.0498 123.571 96.3698 123.176L96.8338 123.704C96.4711 124.152 96.0124 124.493 95.4578 124.728C94.9138 124.952 94.3218 125.064 93.6818 125.064ZM99.8366 125V116.648H100.605V118.936L100.525 118.68C100.759 118.008 101.154 117.491 101.709 117.128C102.263 116.765 102.957 116.584 103.789 116.584V117.368C103.757 117.368 103.725 117.368 103.693 117.368C103.661 117.357 103.629 117.352 103.597 117.352C102.669 117.352 101.943 117.645 101.421 118.232C100.898 118.808 100.637 119.613 100.637 120.648V125H99.8366ZM110.499 125V113.8H111.187L116.387 122.776H116.019L121.203 113.8H121.875L121.891 125H121.091L121.075 115.032H121.299L116.387 123.512H115.987L111.059 115.032H111.299V125H110.499ZM130.804 125V123.096L130.772 122.808V119.672C130.772 118.893 130.558 118.301 130.132 117.896C129.716 117.491 129.102 117.288 128.292 117.288C127.716 117.288 127.177 117.389 126.676 117.592C126.185 117.784 125.764 118.035 125.412 118.344L125.012 117.768C125.428 117.395 125.929 117.107 126.516 116.904C127.102 116.691 127.716 116.584 128.356 116.584C129.39 116.584 130.185 116.845 130.74 117.368C131.294 117.891 131.572 118.669 131.572 119.704V125H130.804ZM127.796 125.064C127.177 125.064 126.638 124.968 126.18 124.776C125.732 124.573 125.385 124.291 125.14 123.928C124.905 123.565 124.788 123.149 124.788 122.68C124.788 122.253 124.884 121.869 125.076 121.528C125.278 121.176 125.609 120.893 126.068 120.68C126.526 120.456 127.14 120.344 127.908 120.344H130.98V120.968H127.924C127.06 120.968 126.452 121.128 126.1 121.448C125.758 121.768 125.588 122.168 125.588 122.648C125.588 123.181 125.79 123.608 126.196 123.928C126.601 124.248 127.172 124.408 127.908 124.408C128.612 124.408 129.204 124.248 129.684 123.928C130.174 123.608 130.537 123.144 130.772 122.536L130.996 123.08C130.772 123.688 130.388 124.173 129.844 124.536C129.31 124.888 128.628 125.064 127.796 125.064ZM139.06 125.064C138.324 125.064 137.657 124.893 137.06 124.552C136.473 124.211 136.004 123.725 135.652 123.096C135.311 122.456 135.14 121.699 135.14 120.824C135.14 119.949 135.311 119.197 135.652 118.568C136.004 117.928 136.473 117.437 137.06 117.096C137.657 116.755 138.324 116.584 139.06 116.584C139.849 116.584 140.553 116.765 141.172 117.128C141.801 117.48 142.292 117.976 142.644 118.616C143.007 119.256 143.188 119.992 143.188 120.824C143.188 121.656 143.007 122.392 142.644 123.032C142.292 123.672 141.801 124.173 141.172 124.536C140.553 124.888 139.849 125.064 139.06 125.064ZM134.868 128.104V116.648H135.636V119.384L135.508 120.84L135.668 122.296V128.104H134.868ZM139.012 124.344C139.652 124.344 140.228 124.2 140.74 123.912C141.252 123.613 141.652 123.197 141.94 122.664C142.239 122.131 142.388 121.517 142.388 120.824C142.388 120.12 142.239 119.507 141.94 118.984C141.652 118.451 141.252 118.04 140.74 117.752C140.228 117.453 139.652 117.304 139.012 117.304C138.372 117.304 137.796 117.453 137.284 117.752C136.783 118.04 136.383 118.451 136.084 118.984C135.796 119.507 135.652 120.12 135.652 120.824C135.652 121.517 135.796 122.131 136.084 122.664C136.383 123.197 136.783 123.613 137.284 123.912C137.796 124.2 138.372 124.344 139.012 124.344Z" fill="#0D0D0D"/>
<path d="M315.952 89V77.8H320.384C321.568 77.8 322.608 78.04 323.504 78.52C324.4 79 325.093 79.6613 325.584 80.504C326.085 81.3467 326.336 82.312 326.336 83.4C326.336 84.488 326.085 85.4533 325.584 86.296C325.093 87.1387 324.4 87.8 323.504 88.28C322.608 88.76 321.568 89 320.384 89H315.952ZM316.768 88.264H320.32C321.376 88.264 322.293 88.056 323.072 87.64C323.851 87.224 324.453 86.6533 324.88 85.928C325.307 85.192 325.52 84.3493 325.52 83.4C325.52 82.4507 325.307 81.6133 324.88 80.888C324.453 80.152 323.851 79.576 323.072 79.16C322.293 78.744 321.376 78.536 320.32 78.536H316.768V88.264ZM328.915 89V80.648H329.715V89H328.915ZM329.315 78.616C329.133 78.616 328.979 78.552 328.851 78.424C328.723 78.296 328.659 78.1467 328.659 77.976C328.659 77.7947 328.723 77.64 328.851 77.512C328.979 77.384 329.133 77.32 329.315 77.32C329.507 77.32 329.661 77.384 329.779 77.512C329.907 77.6293 329.971 77.7787 329.971 77.96C329.971 78.1413 329.907 78.296 329.779 78.424C329.661 78.552 329.507 78.616 329.315 78.616ZM333.087 89V80.648H333.855V82.936L333.775 82.68C334.009 82.008 334.404 81.4907 334.959 81.128C335.513 80.7653 336.207 80.584 337.039 80.584V81.368C337.007 81.368 336.975 81.368 336.943 81.368C336.911 81.3573 336.879 81.352 336.847 81.352C335.919 81.352 335.193 81.6453 334.671 82.232C334.148 82.808 333.887 83.6133 333.887 84.648V89H333.087ZM342.557 89.064C341.714 89.064 340.967 88.8827 340.317 88.52C339.677 88.1573 339.17 87.656 338.797 87.016C338.434 86.376 338.253 85.6453 338.253 84.824C338.253 83.992 338.423 83.2613 338.765 82.632C339.117 81.992 339.597 81.4907 340.205 81.128C340.813 80.7653 341.495 80.584 342.253 80.584C343.01 80.584 343.687 80.76 344.285 81.112C344.893 81.464 345.367 81.96 345.709 82.6C346.061 83.2293 346.237 83.96 346.237 84.792C346.237 84.824 346.231 84.8613 346.221 84.904C346.221 84.936 346.221 84.9733 346.221 85.016H338.845V84.392H345.789L345.469 84.696C345.479 84.0453 345.341 83.464 345.053 82.952C344.775 82.4293 344.397 82.024 343.917 81.736C343.437 81.4373 342.882 81.288 342.253 81.288C341.634 81.288 341.079 81.4373 340.589 81.736C340.109 82.024 339.73 82.4293 339.453 82.952C339.175 83.464 339.037 84.0507 339.037 84.712V84.856C339.037 85.5387 339.186 86.1467 339.485 86.68C339.794 87.2027 340.215 87.6133 340.749 87.912C341.282 88.2 341.89 88.344 342.573 88.344C343.106 88.344 343.602 88.248 344.061 88.056C344.53 87.864 344.925 87.5707 345.245 87.176L345.709 87.704C345.346 88.152 344.887 88.4933 344.333 88.728C343.789 88.952 343.197 89.064 342.557 89.064ZM352.024 89.064C351.213 89.064 350.488 88.8827 349.848 88.52C349.218 88.1573 348.717 87.656 348.344 87.016C347.981 86.376 347.8 85.6453 347.8 84.824C347.8 83.992 347.981 83.256 348.344 82.616C348.717 81.976 349.218 81.48 349.848 81.128C350.488 80.7653 351.213 80.584 352.024 80.584C352.696 80.584 353.304 80.712 353.848 80.968C354.402 81.224 354.85 81.608 355.192 82.12L354.6 82.552C354.301 82.1253 353.928 81.8107 353.48 81.608C353.032 81.4053 352.546 81.304 352.024 81.304C351.373 81.304 350.786 81.4533 350.264 81.752C349.752 82.04 349.346 82.4507 349.048 82.984C348.76 83.5067 348.616 84.12 348.616 84.824C348.616 85.528 348.76 86.1467 349.048 86.68C349.346 87.2027 349.752 87.6133 350.264 87.912C350.786 88.2 351.373 88.344 352.024 88.344C352.546 88.344 353.032 88.2427 353.48 88.04C353.928 87.8373 354.301 87.5227 354.6 87.096L355.192 87.528C354.85 88.04 354.402 88.424 353.848 88.68C353.304 88.936 352.696 89.064 352.024 89.064ZM360.112 89.064C359.376 89.064 358.811 88.8613 358.416 88.456C358.032 88.0507 357.84 87.496 357.84 86.792V78.824H358.64V86.712C358.64 87.2453 358.774 87.656 359.04 87.944C359.307 88.232 359.691 88.376 360.192 88.376C360.715 88.376 361.147 88.2213 361.488 87.912L361.824 88.472C361.611 88.6747 361.35 88.824 361.04 88.92C360.742 89.016 360.432 89.064 360.112 89.064ZM356.304 81.336V80.648H361.296V81.336H356.304ZM364.055 89V80.648H364.855V89H364.055ZM364.455 78.616C364.274 78.616 364.119 78.552 363.991 78.424C363.863 78.296 363.799 78.1467 363.799 77.976C363.799 77.7947 363.863 77.64 363.991 77.512C364.119 77.384 364.274 77.32 364.455 77.32C364.647 77.32 364.802 77.384 364.919 77.512C365.047 77.6293 365.111 77.7787 365.111 77.96C365.111 78.1413 365.047 78.296 364.919 78.424C364.802 78.552 364.647 78.616 364.455 78.616ZM371.491 89.064C370.691 89.064 369.977 88.8827 369.347 88.52C368.729 88.1573 368.233 87.656 367.859 87.016C367.497 86.376 367.315 85.6453 367.315 84.824C367.315 83.992 367.497 83.2613 367.859 82.632C368.233 81.992 368.729 81.4907 369.347 81.128C369.977 80.7653 370.691 80.584 371.491 80.584C372.291 80.584 373.006 80.7653 373.635 81.128C374.265 81.4907 374.761 81.992 375.123 82.632C375.486 83.2613 375.667 83.992 375.667 84.824C375.667 85.6453 375.486 86.376 375.123 87.016C374.761 87.656 374.265 88.1573 373.635 88.52C373.006 88.8827 372.291 89.064 371.491 89.064ZM371.491 88.344C372.131 88.344 372.707 88.2 373.219 87.912C373.731 87.6133 374.131 87.1973 374.419 86.664C374.707 86.1307 374.851 85.5173 374.851 84.824C374.851 84.12 374.707 83.5067 374.419 82.984C374.131 82.4507 373.731 82.04 373.219 81.752C372.707 81.4533 372.131 81.304 371.491 81.304C370.851 81.304 370.275 81.4533 369.763 81.752C369.262 82.04 368.862 82.4507 368.563 82.984C368.275 83.5067 368.131 84.12 368.131 84.824C368.131 85.5173 368.275 86.1307 368.563 86.664C368.862 87.1973 369.262 87.6133 369.763 87.912C370.275 88.2 370.851 88.344 371.491 88.344ZM382.229 80.584C382.912 80.584 383.504 80.7173 384.005 80.984C384.517 81.24 384.912 81.6347 385.189 82.168C385.477 82.6907 385.621 83.3413 385.621 84.12V89H384.821V84.184C384.821 83.2453 384.581 82.5307 384.101 82.04C383.632 81.5493 382.97 81.304 382.117 81.304C381.466 81.304 380.901 81.4373 380.421 81.704C379.941 81.9707 379.573 82.344 379.317 82.824C379.072 83.304 378.949 83.88 378.949 84.552V89H378.149V80.648H378.917V82.968L378.805 82.712C379.061 82.0507 379.482 81.5333 380.069 81.16C380.656 80.776 381.376 80.584 382.229 80.584ZM391.027 89.064C390.333 89.064 389.683 88.9627 389.075 88.76C388.477 88.5573 388.013 88.3013 387.683 87.992L388.051 87.352C388.371 87.6293 388.797 87.8693 389.331 88.072C389.864 88.264 390.44 88.36 391.059 88.36C391.933 88.36 392.563 88.216 392.947 87.928C393.331 87.64 393.523 87.2613 393.523 86.792C393.523 86.4507 393.421 86.184 393.219 85.992C393.027 85.7893 392.765 85.6347 392.435 85.528C392.104 85.4213 391.741 85.336 391.347 85.272C390.952 85.1973 390.557 85.1173 390.163 85.032C389.768 84.9467 389.405 84.824 389.075 84.664C388.744 84.504 388.477 84.2853 388.275 84.008C388.083 83.72 387.987 83.3413 387.987 82.872C387.987 82.4453 388.104 82.0613 388.339 81.72C388.573 81.3787 388.925 81.1067 389.395 80.904C389.864 80.6907 390.451 80.584 391.155 80.584C391.677 80.584 392.2 80.6587 392.723 80.808C393.256 80.9573 393.688 81.1547 394.019 81.4L393.651 82.04C393.299 81.7733 392.904 81.5813 392.467 81.464C392.029 81.3467 391.587 81.288 391.139 81.288C390.328 81.288 389.731 81.4373 389.347 81.736C388.973 82.0347 388.787 82.408 388.787 82.856C388.787 83.208 388.883 83.4907 389.075 83.704C389.277 83.9067 389.544 84.0667 389.875 84.184C390.205 84.2907 390.568 84.3813 390.963 84.456C391.357 84.52 391.752 84.5947 392.147 84.68C392.541 84.7653 392.904 84.888 393.235 85.048C393.565 85.1973 393.827 85.4107 394.019 85.688C394.221 85.9547 394.323 86.3173 394.323 86.776C394.323 87.2347 394.195 87.6347 393.939 87.976C393.693 88.3173 393.325 88.584 392.835 88.776C392.344 88.968 391.741 89.064 391.027 89.064Z" fill="#0D0D0D"/>
<path d="M51.1936 89.1019C51.268 88.9513 51.3829 88.8246 51.5255 88.7359C51.6682 88.6473 51.8327 88.6003 52.0006 88.6003C52.1685 88.6003 52.3331 88.6473 52.4757 88.7359C52.6183 88.8246 52.7333 88.9513 52.8076 89.1019L54.3286 92.1839L57.7296 92.6779C57.8959 92.7019 58.0521 92.7719 58.1807 92.8801C58.3092 92.9882 58.4049 93.1302 58.4569 93.2899C58.5089 93.4497 58.5152 93.6208 58.475 93.7839C58.4349 93.947 58.3499 94.0956 58.2296 94.2129L55.7676 96.6129L56.3486 99.9999C56.3769 100.165 56.3583 100.335 56.2949 100.491C56.2316 100.646 56.126 100.781 55.9901 100.88C55.8543 100.978 55.6936 101.037 55.5261 101.049C55.3587 101.061 55.1912 101.026 55.0426 100.948L52.0006 99.3499L48.9586 100.95C48.8099 101.028 48.6422 101.063 48.4745 101.051C48.3069 101.039 48.1459 100.98 48.01 100.881C47.8741 100.782 47.7685 100.647 47.7054 100.492C47.6422 100.336 47.6239 100.166 47.6526 99.9999L48.2326 96.6129L45.7726 94.2139C45.6524 94.0967 45.5674 93.9481 45.5272 93.7851C45.487 93.6221 45.4932 93.451 45.5451 93.2913C45.597 93.1316 45.6925 92.9896 45.8209 92.8814C45.9493 92.7732 46.1054 92.703 46.2716 92.6789L49.6716 92.1849L51.1936 89.1019Z" fill="url(#paint0_linear_493_29794)"/>
<path d="M69.1936 89.1019C69.268 88.9513 69.3829 88.8246 69.5255 88.7359C69.6682 88.6473 69.8327 88.6003 70.0006 88.6003C70.1685 88.6003 70.3331 88.6473 70.4757 88.7359C70.6183 88.8246 70.7333 88.9513 70.8076 89.1019L72.3286 92.1839L75.7296 92.6779C75.8959 92.7019 76.0521 92.7719 76.1807 92.8801C76.3092 92.9882 76.4049 93.1302 76.4569 93.2899C76.5089 93.4497 76.5152 93.6208 76.475 93.7839C76.4349 93.947 76.3499 94.0956 76.2296 94.2129L73.7676 96.6129L74.3486 99.9999C74.3769 100.165 74.3583 100.335 74.2949 100.491C74.2316 100.646 74.126 100.781 73.9901 100.88C73.8543 100.978 73.6936 101.037 73.5261 101.049C73.3587 101.061 73.1912 101.026 73.0426 100.948L70.0006 99.3499L66.9586 100.95C66.8099 101.028 66.6422 101.063 66.4745 101.051C66.3069 101.039 66.1459 100.98 66.01 100.881C65.8741 100.782 65.7685 100.647 65.7054 100.492C65.6422 100.336 65.6239 100.166 65.6526 99.9999L66.2326 96.6129L63.7726 94.2139C63.6524 94.0967 63.5674 93.9481 63.5272 93.7851C63.487 93.6221 63.4932 93.451 63.5451 93.2913C63.597 93.1316 63.6925 92.9896 63.8209 92.8814C63.9493 92.7732 64.1054 92.703 64.2716 92.6789L67.6716 92.1849L69.1936 89.1019Z" fill="url(#paint1_linear_493_29794)"/>
<path d="M87.1936 89.1019C87.268 88.9513 87.3829 88.8246 87.5255 88.7359C87.6682 88.6473 87.8327 88.6003 88.0006 88.6003C88.1685 88.6003 88.3331 88.6473 88.4757 88.7359C88.6183 88.8246 88.7333 88.9513 88.8076 89.1019L90.3286 92.1839L93.7296 92.6779C93.8959 92.7019 94.0521 92.7719 94.1807 92.8801C94.3092 92.9882 94.4049 93.1302 94.4569 93.2899C94.5089 93.4497 94.5152 93.6208 94.475 93.7839C94.4349 93.947 94.3499 94.0956 94.2296 94.2129L91.7676 96.6129L92.3486 99.9999C92.3769 100.165 92.3583 100.335 92.2949 100.491C92.2316 100.646 92.126 100.781 91.9901 100.88C91.8543 100.978 91.6936 101.037 91.5261 101.049C91.3587 101.061 91.1912 101.026 91.0426 100.948L88.0006 99.3499L84.9586 100.95C84.8099 101.028 84.6422 101.063 84.4745 101.051C84.3069 101.039 84.1459 100.98 84.01 100.881C83.8741 100.782 83.7685 100.647 83.7054 100.492C83.6422 100.336 83.6239 100.166 83.6526 99.9999L84.2326 96.6129L81.7726 94.2139C81.6524 94.0967 81.5674 93.9481 81.5272 93.7851C81.487 93.6221 81.4932 93.451 81.5451 93.2913C81.597 93.1316 81.6925 92.9896 81.8209 92.8814C81.9493 92.7732 82.1054 92.703 82.2716 92.6789L85.6716 92.1849L87.1936 89.1019Z" fill="url(#paint2_linear_493_29794)"/>
<path d="M105.194 89.1019C105.268 88.9513 105.383 88.8246 105.526 88.7359C105.668 88.6473 105.833 88.6003 106.001 88.6003C106.169 88.6003 106.333 88.6473 106.476 88.7359C106.618 88.8246 106.733 88.9513 106.808 89.1019L108.329 92.1839L111.73 92.6779C111.896 92.7019 112.052 92.7719 112.181 92.8801C112.309 92.9882 112.405 93.1302 112.457 93.2899C112.509 93.4497 112.515 93.6208 112.475 93.7839C112.435 93.947 112.35 94.0956 112.23 94.2129L109.768 96.6129L110.349 99.9999C110.377 100.165 110.358 100.335 110.295 100.491C110.232 100.646 110.126 100.781 109.99 100.88C109.854 100.978 109.694 101.037 109.526 101.049C109.359 101.061 109.191 101.026 109.043 100.948L106.001 99.3499L102.959 100.95C102.81 101.028 102.642 101.063 102.475 101.051C102.307 101.039 102.146 100.98 102.01 100.881C101.874 100.782 101.769 100.647 101.705 100.492C101.642 100.336 101.624 100.166 101.653 99.9999L102.233 96.6129L99.7726 94.2139C99.6524 94.0967 99.5674 93.9481 99.5272 93.7851C99.487 93.6221 99.4932 93.451 99.5451 93.2913C99.597 93.1316 99.6925 92.9896 99.8209 92.8814C99.9493 92.7732 100.105 92.703 100.272 92.6789L103.672 92.1849L105.194 89.1019Z" fill="url(#paint3_linear_493_29794)"/>
<path d="M123.194 89.1019C123.268 88.9513 123.383 88.8246 123.526 88.7359C123.668 88.6473 123.833 88.6003 124.001 88.6003C124.169 88.6003 124.333 88.6473 124.476 88.7359C124.618 88.8246 124.733 88.9513 124.808 89.1019L126.329 92.1839L129.73 92.6779C129.896 92.7019 130.052 92.7719 130.181 92.8801C130.309 92.9882 130.405 93.1302 130.457 93.2899C130.509 93.4497 130.515 93.6208 130.475 93.7839C130.435 93.947 130.35 94.0956 130.23 94.2129L127.768 96.6129L128.349 99.9999C128.377 100.165 128.358 100.335 128.295 100.491C128.232 100.646 128.126 100.781 127.99 100.88C127.854 100.978 127.694 101.037 127.526 101.049C127.359 101.061 127.191 101.026 127.043 100.948L124.001 99.3499L120.959 100.95C120.81 101.028 120.642 101.063 120.475 101.051C120.307 101.039 120.146 100.98 120.01 100.881C119.874 100.782 119.769 100.647 119.705 100.492C119.642 100.336 119.624 100.166 119.653 99.9999L120.233 96.6129L117.773 94.2139C117.652 94.0967 117.567 93.9481 117.527 93.7851C117.487 93.6221 117.493 93.451 117.545 93.2913C117.597 93.1316 117.693 92.9896 117.821 92.8814C117.949 92.7732 118.105 92.703 118.272 92.6789L121.672 92.1849L123.194 89.1019Z" fill="url(#paint4_linear_493_29794)"/>
<path d="M19.33 44.09C18.646 44.09 18.004 43.934 17.404 43.622C16.816 43.298 16.342 42.854 15.982 42.29L16.54 41.678C16.888 42.194 17.296 42.59 17.764 42.866C18.244 43.13 18.766 43.262 19.33 43.262C20.998 43.262 21.832 42.272 21.832 40.292V32.228H17.188V31.4H22.75V40.292C22.75 41.552 22.462 42.5 21.886 43.136C21.31 43.772 20.458 44.09 19.33 44.09ZM30.4218 44.072C29.5218 44.072 28.7178 43.868 28.0098 43.46C27.3138 43.052 26.7558 42.488 26.3358 41.768C25.9278 41.048 25.7238 40.226 25.7238 39.302C25.7238 38.366 25.9278 37.544 26.3358 36.836C26.7558 36.116 27.3138 35.552 28.0098 35.144C28.7178 34.736 29.5218 34.532 30.4218 34.532C31.3218 34.532 32.1258 34.736 32.8338 35.144C33.5418 35.552 34.0998 36.116 34.5078 36.836C34.9158 37.544 35.1198 38.366 35.1198 39.302C35.1198 40.226 34.9158 41.048 34.5078 41.768C34.0998 42.488 33.5418 43.052 32.8338 43.46C32.1258 43.868 31.3218 44.072 30.4218 44.072ZM30.4218 43.262C31.1418 43.262 31.7898 43.1 32.3658 42.776C32.9418 42.44 33.3918 41.972 33.7158 41.372C34.0398 40.772 34.2018 40.082 34.2018 39.302C34.2018 38.51 34.0398 37.82 33.7158 37.232C33.3918 36.632 32.9418 36.17 32.3658 35.846C31.7898 35.51 31.1418 35.342 30.4218 35.342C29.7018 35.342 29.0538 35.51 28.4778 35.846C27.9138 36.17 27.4638 36.632 27.1278 37.232C26.8038 37.82 26.6418 38.51 26.6418 39.302C26.6418 40.082 26.8038 40.772 27.1278 41.372C27.4638 41.972 27.9138 42.44 28.4778 42.776C29.0538 43.1 29.7018 43.262 30.4218 43.262ZM42.5019 34.532C43.2699 34.532 43.9359 34.682 44.4999 34.982C45.0759 35.27 45.5199 35.714 45.8319 36.314C46.1559 36.902 46.3179 37.634 46.3179 38.51V44H45.4179V38.582C45.4179 37.526 45.1479 36.722 44.6079 36.17C44.0799 35.618 43.3359 35.342 42.3759 35.342C41.6439 35.342 41.0079 35.492 40.4679 35.792C39.9279 36.092 39.5139 36.512 39.2259 37.052C38.9499 37.592 38.8119 38.24 38.8119 38.996V44H37.9119V30.644H38.8119V37.214L38.6499 36.926C38.9379 36.182 39.4119 35.6 40.0719 35.18C40.7319 34.748 41.5419 34.532 42.5019 34.532ZM55.9452 44V41.858L55.9092 41.534V38.006C55.9092 37.13 55.6692 36.464 55.1892 36.008C54.7212 35.552 54.0312 35.324 53.1192 35.324C52.4712 35.324 51.8652 35.438 51.3012 35.666C50.7492 35.882 50.2752 36.164 49.8792 36.512L49.4292 35.864C49.8972 35.444 50.4612 35.12 51.1212 34.892C51.7812 34.652 52.4712 34.532 53.1912 34.532C54.3552 34.532 55.2492 34.826 55.8732 35.414C56.4972 36.002 56.8092 36.878 56.8092 38.042V44H55.9452ZM52.5612 44.072C51.8652 44.072 51.2592 43.964 50.7432 43.748C50.2392 43.52 49.8492 43.202 49.5732 42.794C49.3092 42.386 49.1772 41.918 49.1772 41.39C49.1772 40.91 49.2852 40.478 49.5012 40.094C49.7292 39.698 50.1012 39.38 50.6172 39.14C51.1332 38.888 51.8232 38.762 52.6872 38.762H56.1432V39.464H52.7052C51.7332 39.464 51.0492 39.644 50.6532 40.004C50.2692 40.364 50.0772 40.814 50.0772 41.354C50.0772 41.954 50.3052 42.434 50.7612 42.794C51.2172 43.154 51.8592 43.334 52.6872 43.334C53.4792 43.334 54.1452 43.154 54.6852 42.794C55.2372 42.434 55.6452 41.912 55.9092 41.228L56.1612 41.84C55.9092 42.524 55.4772 43.07 54.8652 43.478C54.2652 43.874 53.4972 44.072 52.5612 44.072ZM60.5174 44V34.604H61.3814V37.178L61.2914 36.89C61.5554 36.134 61.9994 35.552 62.6234 35.144C63.2474 34.736 64.0274 34.532 64.9634 34.532V35.414C64.9274 35.414 64.8914 35.414 64.8554 35.414C64.8194 35.402 64.7834 35.396 64.7474 35.396C63.7034 35.396 62.8874 35.726 62.2994 36.386C61.7114 37.034 61.4174 37.94 61.4174 39.104V44H60.5174ZM74.9604 44.072C74.1324 44.072 73.4964 43.844 73.0524 43.388C72.6204 42.932 72.4044 42.308 72.4044 41.516V32.552H73.3044V41.426C73.3044 42.026 73.4544 42.488 73.7544 42.812C74.0544 43.136 74.4864 43.298 75.0504 43.298C75.6384 43.298 76.1244 43.124 76.5084 42.776L76.8864 43.406C76.6464 43.634 76.3524 43.802 76.0044 43.91C75.6684 44.018 75.3204 44.072 74.9604 44.072ZM70.6764 35.378V34.604H76.2924V35.378H70.6764ZM82.7343 44.072C81.8343 44.072 81.0303 43.868 80.3223 43.46C79.6263 43.052 79.0683 42.488 78.6483 41.768C78.2403 41.048 78.0363 40.226 78.0363 39.302C78.0363 38.366 78.2403 37.544 78.6483 36.836C79.0683 36.116 79.6263 35.552 80.3223 35.144C81.0303 34.736 81.8343 34.532 82.7343 34.532C83.6343 34.532 84.4383 34.736 85.1463 35.144C85.8543 35.552 86.4123 36.116 86.8203 36.836C87.2283 37.544 87.4323 38.366 87.4323 39.302C87.4323 40.226 87.2283 41.048 86.8203 41.768C86.4123 42.488 85.8543 43.052 85.1463 43.46C84.4383 43.868 83.6343 44.072 82.7343 44.072ZM82.7343 43.262C83.4543 43.262 84.1023 43.1 84.6783 42.776C85.2543 42.44 85.7043 41.972 86.0283 41.372C86.3523 40.772 86.5143 40.082 86.5143 39.302C86.5143 38.51 86.3523 37.82 86.0283 37.232C85.7043 36.632 85.2543 36.17 84.6783 35.846C84.1023 35.51 83.4543 35.342 82.7343 35.342C82.0143 35.342 81.3663 35.51 80.7903 35.846C80.2263 36.17 79.7763 36.632 79.4403 37.232C79.1163 37.82 78.9543 38.51 78.9543 39.302C78.9543 40.082 79.1163 40.772 79.4403 41.372C79.7763 41.972 80.2263 42.44 80.7903 42.776C81.3663 43.1 82.0143 43.262 82.7343 43.262ZM91.7967 44L88.2327 34.604H89.0967L92.4087 43.496H92.0307L95.4327 34.604H96.2067L99.5907 43.496H99.1947L102.561 34.604H103.389L99.8247 44H98.9787L95.6667 35.468H95.9547L92.6247 44H91.7967ZM110.072 34.532C110.84 34.532 111.506 34.682 112.07 34.982C112.646 35.27 113.09 35.714 113.402 36.314C113.726 36.902 113.888 37.634 113.888 38.51V44H112.988V38.582C112.988 37.526 112.718 36.722 112.178 36.17C111.65 35.618 110.906 35.342 109.946 35.342C109.214 35.342 108.578 35.492 108.038 35.792C107.498 36.092 107.084 36.512 106.796 37.052C106.52 37.592 106.382 38.24 106.382 38.996V44H105.482V34.604H106.346V37.214L106.22 36.926C106.508 36.182 106.982 35.6 107.642 35.18C108.302 34.748 109.112 34.532 110.072 34.532ZM116.73 46.574L117.432 43.532L117.522 44.054C117.294 44.054 117.102 43.982 116.946 43.838C116.802 43.694 116.73 43.514 116.73 43.298C116.73 43.082 116.802 42.902 116.946 42.758C117.102 42.614 117.282 42.542 117.486 42.542C117.714 42.542 117.894 42.62 118.026 42.776C118.17 42.92 118.242 43.094 118.242 43.298C118.242 43.382 118.236 43.466 118.224 43.55C118.212 43.634 118.194 43.718 118.17 43.802C118.146 43.886 118.116 43.994 118.08 44.126L117.378 46.574H116.73ZM121.197 44V30.644H122.097V44H121.197ZM131.812 44V41.858L131.776 41.534V38.006C131.776 37.13 131.536 36.464 131.056 36.008C130.588 35.552 129.898 35.324 128.986 35.324C128.338 35.324 127.732 35.438 127.168 35.666C126.616 35.882 126.142 36.164 125.746 36.512L125.296 35.864C125.764 35.444 126.328 35.12 126.988 34.892C127.648 34.652 128.338 34.532 129.058 34.532C130.222 34.532 131.116 34.826 131.74 35.414C132.364 36.002 132.676 36.878 132.676 38.042V44H131.812ZM128.428 44.072C127.732 44.072 127.126 43.964 126.61 43.748C126.106 43.52 125.716 43.202 125.44 42.794C125.176 42.386 125.044 41.918 125.044 41.39C125.044 40.91 125.152 40.478 125.368 40.094C125.596 39.698 125.968 39.38 126.484 39.14C127 38.888 127.69 38.762 128.554 38.762H132.01V39.464H128.572C127.6 39.464 126.916 39.644 126.52 40.004C126.136 40.364 125.944 40.814 125.944 41.354C125.944 41.954 126.172 42.434 126.628 42.794C127.084 43.154 127.726 43.334 128.554 43.334C129.346 43.334 130.012 43.154 130.552 42.794C131.104 42.434 131.512 41.912 131.776 41.228L132.028 41.84C131.776 42.524 131.344 43.07 130.732 43.478C130.132 43.874 129.364 44.072 128.428 44.072ZM140.975 34.532C141.743 34.532 142.409 34.682 142.973 34.982C143.549 35.27 143.993 35.714 144.305 36.314C144.629 36.902 144.791 37.634 144.791 38.51V44H143.891V38.582C143.891 37.526 143.621 36.722 143.081 36.17C142.553 35.618 141.809 35.342 140.849 35.342C140.117 35.342 139.481 35.492 138.941 35.792C138.401 36.092 137.987 36.512 137.699 37.052C137.423 37.592 137.285 38.24 137.285 38.996V44H136.385V30.644H137.285V37.214L137.123 36.926C137.411 36.182 137.885 35.6 138.545 35.18C139.205 34.748 140.015 34.532 140.975 34.532ZM152.168 44.072C151.268 44.072 150.464 43.868 149.756 43.46C149.06 43.052 148.502 42.488 148.082 41.768C147.674 41.048 147.47 40.226 147.47 39.302C147.47 38.366 147.674 37.544 148.082 36.836C148.502 36.116 149.06 35.552 149.756 35.144C150.464 34.736 151.268 34.532 152.168 34.532C153.068 34.532 153.872 34.736 154.58 35.144C155.288 35.552 155.846 36.116 156.254 36.836C156.662 37.544 156.866 38.366 156.866 39.302C156.866 40.226 156.662 41.048 156.254 41.768C155.846 42.488 155.288 43.052 154.58 43.46C153.872 43.868 153.068 44.072 152.168 44.072ZM152.168 43.262C152.888 43.262 153.536 43.1 154.112 42.776C154.688 42.44 155.138 41.972 155.462 41.372C155.786 40.772 155.948 40.082 155.948 39.302C155.948 38.51 155.786 37.82 155.462 37.232C155.138 36.632 154.688 36.17 154.112 35.846C153.536 35.51 152.888 35.342 152.168 35.342C151.448 35.342 150.8 35.51 150.224 35.846C149.66 36.17 149.21 36.632 148.874 37.232C148.55 37.82 148.388 38.51 148.388 39.302C148.388 40.082 148.55 40.772 148.874 41.372C149.21 41.972 149.66 42.44 150.224 42.776C150.8 43.1 151.448 43.262 152.168 43.262ZM159.658 44V34.604H160.522V37.178L160.432 36.89C160.696 36.134 161.14 35.552 161.764 35.144C162.388 34.736 163.168 34.532 164.104 34.532V35.414C164.068 35.414 164.032 35.414 163.996 35.414C163.96 35.402 163.924 35.396 163.888 35.396C162.844 35.396 162.028 35.726 161.44 36.386C160.852 37.034 160.558 37.94 160.558 39.104V44H159.658ZM170.312 44.072C169.364 44.072 168.524 43.868 167.792 43.46C167.072 43.052 166.502 42.488 166.082 41.768C165.674 41.048 165.47 40.226 165.47 39.302C165.47 38.366 165.662 37.544 166.046 36.836C166.442 36.116 166.982 35.552 167.666 35.144C168.35 34.736 169.118 34.532 169.97 34.532C170.822 34.532 171.584 34.73 172.256 35.126C172.94 35.522 173.474 36.08 173.858 36.8C174.254 37.508 174.452 38.33 174.452 39.266C174.452 39.302 174.446 39.344 174.434 39.392C174.434 39.428 174.434 39.47 174.434 39.518H166.136V38.816H173.948L173.588 39.158C173.6 38.426 173.444 37.772 173.12 37.196C172.808 36.608 172.382 36.152 171.842 35.828C171.302 35.492 170.678 35.324 169.97 35.324C169.274 35.324 168.65 35.492 168.098 35.828C167.558 36.152 167.132 36.608 166.82 37.196C166.508 37.772 166.352 38.432 166.352 39.176V39.338C166.352 40.106 166.52 40.79 166.856 41.39C167.204 41.978 167.678 42.44 168.278 42.776C168.878 43.1 169.562 43.262 170.33 43.262C170.93 43.262 171.488 43.154 172.004 42.938C172.532 42.722 172.976 42.392 173.336 41.948L173.858 42.542C173.45 43.046 172.934 43.43 172.31 43.694C171.698 43.946 171.032 44.072 170.312 44.072ZM176.372 46.574L177.074 43.532L177.164 44.054C176.936 44.054 176.744 43.982 176.588 43.838C176.444 43.694 176.372 43.514 176.372 43.298C176.372 43.082 176.444 42.902 176.588 42.758C176.744 42.614 176.924 42.542 177.128 42.542C177.356 42.542 177.536 42.62 177.668 42.776C177.812 42.92 177.884 43.094 177.884 43.298C177.884 43.382 177.878 43.466 177.866 43.55C177.854 43.634 177.836 43.718 177.812 43.802C177.788 43.886 177.758 43.994 177.722 44.126L177.02 46.574H176.372ZM185.556 44.072C184.728 44.072 183.978 43.88 183.306 43.496C182.646 43.112 182.118 42.566 181.722 41.858C181.338 41.138 181.146 40.286 181.146 39.302C181.146 38.318 181.338 37.472 181.722 36.764C182.118 36.044 182.646 35.492 183.306 35.108C183.978 34.724 184.728 34.532 185.556 34.532C186.444 34.532 187.236 34.736 187.932 35.144C188.64 35.54 189.192 36.098 189.588 36.818C189.996 37.538 190.2 38.366 190.2 39.302C190.2 40.238 189.996 41.066 189.588 41.786C189.192 42.506 188.64 43.07 187.932 43.478C187.236 43.874 186.444 44.072 185.556 44.072ZM180.84 47.492V34.604H181.704V37.682L181.56 39.32L181.74 40.958V47.492H180.84ZM185.502 43.262C186.222 43.262 186.87 43.1 187.446 42.776C188.022 42.44 188.472 41.972 188.796 41.372C189.132 40.772 189.3 40.082 189.3 39.302C189.3 38.51 189.132 37.82 188.796 37.232C188.472 36.632 188.022 36.17 187.446 35.846C186.87 35.51 186.222 35.342 185.502 35.342C184.782 35.342 184.134 35.51 183.558 35.846C182.994 36.17 182.544 36.632 182.208 37.232C181.884 37.82 181.722 38.51 181.722 39.302C181.722 40.082 181.884 40.772 182.208 41.372C182.544 41.972 182.994 42.44 183.558 42.776C184.134 43.1 184.782 43.262 185.502 43.262ZM198.873 44V41.858L198.837 41.534V38.006C198.837 37.13 198.597 36.464 198.117 36.008C197.649 35.552 196.959 35.324 196.047 35.324C195.399 35.324 194.793 35.438 194.229 35.666C193.677 35.882 193.203 36.164 192.807 36.512L192.357 35.864C192.825 35.444 193.389 35.12 194.049 34.892C194.709 34.652 195.399 34.532 196.119 34.532C197.283 34.532 198.177 34.826 198.801 35.414C199.425 36.002 199.737 36.878 199.737 38.042V44H198.873ZM195.489 44.072C194.793 44.072 194.187 43.964 193.671 43.748C193.167 43.52 192.777 43.202 192.501 42.794C192.237 42.386 192.105 41.918 192.105 41.39C192.105 40.91 192.213 40.478 192.429 40.094C192.657 39.698 193.029 39.38 193.545 39.14C194.061 38.888 194.751 38.762 195.615 38.762H199.071V39.464H195.633C194.661 39.464 193.977 39.644 193.581 40.004C193.197 40.364 193.005 40.814 193.005 41.354C193.005 41.954 193.233 42.434 193.689 42.794C194.145 43.154 194.787 43.334 195.615 43.334C196.407 43.334 197.073 43.154 197.613 42.794C198.165 42.434 198.573 41.912 198.837 41.228L199.089 41.84C198.837 42.524 198.405 43.07 197.793 43.478C197.193 43.874 196.425 44.072 195.489 44.072ZM204.129 41.408L204.147 40.274L210.357 34.604H211.509L207.387 38.474L206.847 38.924L204.129 41.408ZM203.445 44V30.644H204.345V44H203.445ZM210.789 44L206.685 38.852L207.297 38.186L211.905 44H210.789ZM214.027 44V34.604H214.927V44H214.027ZM214.477 32.318C214.273 32.318 214.099 32.246 213.955 32.102C213.811 31.958 213.739 31.79 213.739 31.598C213.739 31.394 213.811 31.22 213.955 31.076C214.099 30.932 214.273 30.86 214.477 30.86C214.693 30.86 214.867 30.932 214.999 31.076C215.143 31.208 215.215 31.376 215.215 31.58C215.215 31.784 215.143 31.958 214.999 32.102C214.867 32.246 214.693 32.318 214.477 32.318ZM221.097 44.072C220.317 44.072 219.585 43.958 218.901 43.73C218.229 43.502 217.707 43.214 217.335 42.866L217.749 42.146C218.109 42.458 218.589 42.728 219.188 42.956C219.789 43.172 220.437 43.28 221.133 43.28C222.117 43.28 222.825 43.118 223.257 42.794C223.689 42.47 223.905 42.044 223.905 41.516C223.905 41.132 223.791 40.832 223.563 40.616C223.347 40.388 223.053 40.214 222.681 40.094C222.309 39.974 221.901 39.878 221.457 39.806C221.013 39.722 220.569 39.632 220.125 39.536C219.681 39.44 219.273 39.302 218.901 39.122C218.529 38.942 218.229 38.696 218 38.384C217.785 38.06 217.677 37.634 217.677 37.106C217.677 36.626 217.809 36.194 218.073 35.81C218.337 35.426 218.733 35.12 219.261 34.892C219.789 34.652 220.449 34.532 221.241 34.532C221.829 34.532 222.417 34.616 223.005 34.784C223.605 34.952 224.091 35.174 224.463 35.45L224.049 36.17C223.653 35.87 223.209 35.654 222.717 35.522C222.225 35.39 221.727 35.324 221.223 35.324C220.311 35.324 219.639 35.492 219.207 35.828C218.787 36.164 218.577 36.584 218.577 37.088C218.577 37.484 218.685 37.802 218.901 38.042C219.129 38.27 219.429 38.45 219.801 38.582C220.173 38.702 220.581 38.804 221.025 38.888C221.469 38.96 221.913 39.044 222.357 39.14C222.801 39.236 223.209 39.374 223.581 39.554C223.953 39.722 224.247 39.962 224.463 40.274C224.691 40.574 224.805 40.982 224.805 41.498C224.805 42.014 224.661 42.464 224.373 42.848C224.097 43.232 223.683 43.532 223.131 43.748C222.579 43.964 221.901 44.072 221.097 44.072ZM230.052 44.072C229.224 44.072 228.588 43.844 228.144 43.388C227.712 42.932 227.496 42.308 227.496 41.516V32.552H228.396V41.426C228.396 42.026 228.546 42.488 228.846 42.812C229.146 43.136 229.578 43.298 230.142 43.298C230.73 43.298 231.216 43.124 231.6 42.776L231.978 43.406C231.738 43.634 231.444 43.802 231.096 43.91C230.76 44.018 230.412 44.072 230.052 44.072ZM225.768 35.378V34.604H231.384V35.378H225.768ZM240.41 44V41.858L240.374 41.534V38.006C240.374 37.13 240.134 36.464 239.654 36.008C239.186 35.552 238.496 35.324 237.584 35.324C236.936 35.324 236.33 35.438 235.766 35.666C235.214 35.882 234.74 36.164 234.344 36.512L233.894 35.864C234.362 35.444 234.926 35.12 235.586 34.892C236.246 34.652 236.936 34.532 237.656 34.532C238.82 34.532 239.714 34.826 240.338 35.414C240.962 36.002 241.274 36.878 241.274 38.042V44H240.41ZM237.026 44.072C236.33 44.072 235.724 43.964 235.208 43.748C234.704 43.52 234.314 43.202 234.038 42.794C233.774 42.386 233.642 41.918 233.642 41.39C233.642 40.91 233.75 40.478 233.966 40.094C234.194 39.698 234.566 39.38 235.082 39.14C235.598 38.888 236.288 38.762 237.152 38.762H240.608V39.464H237.17C236.198 39.464 235.514 39.644 235.118 40.004C234.734 40.364 234.542 40.814 234.542 41.354C234.542 41.954 234.77 42.434 235.226 42.794C235.682 43.154 236.324 43.334 237.152 43.334C237.944 43.334 238.61 43.154 239.15 42.794C239.702 42.434 240.11 41.912 240.374 41.228L240.626 41.84C240.374 42.524 239.942 43.07 239.33 43.478C238.73 43.874 237.962 44.072 237.026 44.072ZM249.572 34.532C250.34 34.532 251.006 34.682 251.57 34.982C252.146 35.27 252.59 35.714 252.902 36.314C253.226 36.902 253.388 37.634 253.388 38.51V44H252.488V38.582C252.488 37.526 252.218 36.722 251.678 36.17C251.15 35.618 250.406 35.342 249.446 35.342C248.714 35.342 248.078 35.492 247.538 35.792C246.998 36.092 246.584 36.512 246.296 37.052C246.02 37.592 245.882 38.24 245.882 38.996V44H244.982V34.604H245.846V37.214L245.72 36.926C246.008 36.182 246.482 35.6 247.142 35.18C247.802 34.748 248.612 34.532 249.572 34.532Z" fill="#4E4E4E"/>
<path d="M364.75 34.25L373.5 25.5M373.5 25.5L364.75 16.75M373.5 25.5H366.5C363.715 25.5 361.045 26.6062 359.075 28.5754C357.106 30.5445 356 33.2152 356 36V57V44.75C356 41.9652 354.894 39.2945 352.925 37.3254C350.955 35.3562 348.285 34.25 345.5 34.25H338.5M347.25 25.5L338.5 34.25M338.5 34.25L347.25 43" stroke="#0D0D0D" stroke-width="2"/>
<defs>
<linearGradient id="paint0_linear_493_29794" x1="58.4996" y1="101.332" x2="45.1246" y2="88.7199" gradientUnits="userSpaceOnUse">
<stop stop-color="#FF6F47"/>
<stop offset="1" stop-color="#FFCD0F"/>
</linearGradient>
<linearGradient id="paint1_linear_493_29794" x1="76.4996" y1="101.332" x2="63.1246" y2="88.7199" gradientUnits="userSpaceOnUse">
<stop stop-color="#FF6F47"/>
<stop offset="1" stop-color="#FFCD0F"/>
</linearGradient>
<linearGradient id="paint2_linear_493_29794" x1="94.4996" y1="101.332" x2="81.1246" y2="88.7199" gradientUnits="userSpaceOnUse">
<stop stop-color="#FF6F47"/>
<stop offset="1" stop-color="#FFCD0F"/>
</linearGradient>
<linearGradient id="paint3_linear_493_29794" x1="112.5" y1="101.332" x2="99.1246" y2="88.7199" gradientUnits="userSpaceOnUse">
<stop stop-color="#FF6F47"/>
<stop offset="1" stop-color="#FFCD0F"/>
</linearGradient>
<linearGradient id="paint4_linear_493_29794" x1="130.5" y1="101.332" x2="117.125" y2="88.7199" gradientUnits="userSpaceOnUse">
<stop stop-color="#FF6F47"/>
<stop offset="1" stop-color="#FFCD0F"/>
</linearGradient>
</defs>
</svg>
